<svg width="23" height="20" viewBox="0 0 23 20" fill="none" xmlns="http://www.w3.org/2000/svg">
<g clip-path="url(#clip0_643:41)">
<path d="M20.984 4.05253e-07H16.047C15.0885 0.000115927 14.1432 0.223694 13.2862 0.652977C12.4292 1.08226 11.6841 1.70542 11.11 2.473C10.5358 1.70529 9.79054 1.08204 8.93335 0.652749C8.07616 0.223459 7.13067 -3.95352e-05 6.172 4.05253e-07H1.235C1.07287 -0.000130985 0.91229 0.0316881 0.762459 0.0936436C0.612628 0.155599 0.476479 0.246476 0.361786 0.361077C0.247092 0.475677 0.156101 0.611755 0.0940247 0.761536C0.0319478 0.911317 -5.32374e-08 1.07187 0 1.234V16.047C0 16.3743 0.130007 16.6882 0.361427 16.9196C0.592847 17.151 0.906724 17.281 1.234 17.281H8.64C8.96711 17.2815 9.28067 17.4117 9.51198 17.643C9.74328 17.8743 9.87346 18.1879 9.87399 18.515C9.87399 18.8424 10.0041 19.1564 10.2356 19.3879C10.4671 19.6194 10.7811 19.7495 11.1085 19.7495C11.4359 19.7495 11.7499 19.6194 11.9814 19.3879C12.2129 19.1564 12.343 18.8424 12.343 18.515C12.3435 18.1879 12.4737 17.8743 12.705 17.643C12.9363 17.4117 13.2499 17.2815 13.577 17.281H20.983C21.1451 17.281 21.3055 17.2491 21.4552 17.1871C21.6049 17.1251 21.741 17.0342 21.8556 16.9196C21.9702 16.805 22.061 16.6689 22.1231 16.5192C22.1851 16.3695 22.217 16.209 22.217 16.047V1.234C22.217 0.906898 22.0871 0.593177 21.8559 0.361786C21.6247 0.130395 21.3111 0.000265481 20.984 4.05253e-07V4.05253e-07ZM9.875 15.024C9.4787 14.8838 9.06136 14.8125 8.64101 14.813H2.469V2.469H6.169C7.14973 2.47085 8.08976 2.86127 8.78325 3.55475C9.47673 4.24823 9.86715 5.18827 9.869 6.169L9.875 15.024ZM19.75 14.813H13.578C13.1576 14.8125 12.7403 14.8838 12.344 15.024V6.172C12.3458 5.19126 12.7363 4.25123 13.4297 3.55775C14.1232 2.86426 15.0633 2.47385 16.044 2.472H19.744L19.75 14.813Z" fill="white"/>
</g>
<defs>
<clipPath id="clip0_643:41">
<rect width="22.218" height="19.75" fill="white"/>
</clipPath>
</defs>
</svg>
