<svg width="151" height="78" viewBox="0 0 151 78" fill="none" xmlns="http://www.w3.org/2000/svg">
<g clip-path="url(#clip0_643:30)">
<path d="M150.634 6.68408C150.634 6.68408 148.99 8.93809 138.889 43.9571C128.788 78.9761 129.798 77.4461 129.798 77.4461H125.589C125.729 63.4086 125.038 49.3751 123.521 35.4191C123.521 35.4191 126.431 54.3811 111.447 77.4461H105.554C105.554 77.4461 122.342 64.8821 122.342 26.3271L126.719 23.8021C126.719 23.8021 132.154 52.1921 131.144 64.3141C131.144 64.3141 138.999 17.2791 139.673 13.4071L150.634 6.68408Z" fill="#EE353D"/>
<path d="M111.447 43.7739L105.218 67.174H99.4942L104.376 52.1899L91.9172 67.174H86.8662L93.4322 43.7739H98.3142L94.9472 57.7479L106.227 43.7739H111.447Z" fill="white"/>
<path d="M65.6518 56.2319C65.6518 56.2319 68.5138 45.1499 61.5798 43.3559C60.0438 42.9941 58.4479 42.9672 56.9005 43.2767C55.3531 43.5863 53.8905 44.2251 52.6118 45.1499C50.2348 46.7639 47.0118 50.2369 46.2118 56.6059C44.6428 69.0699 55.2358 67.8559 55.2358 67.8559C55.2358 67.8559 62.1698 66.7029 64.4738 59.9359H59.7598C59.7598 59.9359 53.1958 67.2519 50.6688 60.4409C50.4605 59.0305 50.5757 57.5912 51.0058 56.2319H65.6518ZM59.2558 47.1399C63.4648 47.4769 62.1178 52.6959 62.1178 52.6959H52.3528C52.3528 52.6959 55.0458 46.8039 59.2538 47.1409L59.2558 47.1399Z" fill="white"/>
<path d="M89.3921 43.7739H74.4081L65.653 63.8089H63.2961L60.6021 72.3949H64.9791L66.6631 67.1759H80.4691L79.122 72.3949H83.502L85.691 63.8089H83.502L89.3921 43.7739ZM78.7851 63.8089H70.0301L77.101 47.1409H84.001L78.7851 63.8089Z" fill="white"/>
<path d="M44.6082 23.7388C44.5912 23.7558 44.5912 23.7888 44.5742 23.8058C44.5808 23.7813 44.5924 23.7585 44.6082 23.7388V23.7388Z" fill="white"/>
<path d="M49.8262 19.3609C47.4692 18.3509 45.1122 22.2229 43.4262 24.2429C41.7402 26.2629 34.5062 40.0699 30.4652 46.9769C27.2652 52.4489 19.6902 63.6449 19.6902 63.6449C19.0238 61.9072 17.8834 60.3912 16.3985 59.2693C14.9136 58.1473 13.1438 57.4643 11.2902 57.2979C12.6202 54.2169 12.5902 54.7219 13.7992 52.1979C15.6512 48.3259 13.4622 50.8509 13.4622 50.8509C12.0347 52.89 10.7136 55.0015 9.50417 57.1769C3.00417 57.3619 0.497173 63.9769 0.497173 63.9769C-1.69183 71.2159 3.52717 78.4559 12.6192 76.7769C21.7112 75.0979 31.3912 55.7989 34.5062 46.8089C37.5362 38.0539 44.4222 25.2589 45.2812 23.7439C43.5132 26.9439 38.4262 40.1139 37.0312 50.0079C36.0195 55.888 34.3839 61.6435 32.1522 67.1769H43.2602C34.8422 41.2479 49.8262 19.3609 49.8262 19.3609ZM2.51717 64.6499C2.51717 64.6499 2.51717 59.2619 8.91717 58.9259C8.91717 58.9259 6.05517 65.6599 10.9372 70.0379C10.9352 70.0379 3.19117 72.0579 2.51717 64.6499ZM13.2922 69.0269C7.90417 66.1649 10.5982 58.9269 10.5982 58.9269C22.0472 62.2929 13.2922 69.0269 13.2922 69.0269Z" fill="white"/>
<path d="M41.5768 27.1402C41.5768 27.1402 34.6588 20.0152 43.0918 13.6402C51.5248 7.26521 55.7848 12.8242 56.4828 14.2672C57.1808 15.7102 57.5828 17.7762 55.5178 17.7482C53.4528 17.7202 54.9448 15.5592 54.0358 15.4912C49.3218 15.1542 46.4598 15.9962 43.9358 18.5212C41.1578 21.2992 43.2468 23.6162 42.6578 25.7712C42.0688 27.9262 41.5768 27.1402 41.5768 27.1402Z" fill="white"/>
<path d="M53.867 0C52.4282 0.253067 51.1337 1.02915 50.2325 2.17902C49.3312 3.32888 48.887 4.77135 48.985 6.229C48.985 11.785 55.046 8.249 55.885 5.556C56.477 3.67 57.235 0 53.867 0Z" fill="white"/>
</g>
<defs>
<clipPath id="clip0_643:30">
<rect width="150.634" height="77.455" fill="white"/>
</clipPath>
</defs>
</svg>
