<svg width="17" height="13" viewBox="0 0 17 13" fill="none" xmlns="http://www.w3.org/2000/svg">
<g clip-path="url(#clip0_643:16)">
<g opacity="0.6">
<g opacity="0.6">
<path opacity="0.6" d="M5.14176 1.02776C6.23171 1.03119 7.27603 1.46576 8.04665 2.23657C8.81728 3.00738 9.2516 4.05181 9.25476 5.14176V11.3118H4.11376C3.70658 11.3192 3.30207 11.2445 2.92441 11.0921C2.54675 10.9397 2.20369 10.7128 1.91572 10.4248C1.62775 10.1368 1.40079 9.79377 1.24839 9.41611C1.096 9.03845 1.0213 8.63394 1.02876 8.22676V5.14176C1.03192 4.05181 1.46624 3.00738 2.23687 2.23657C3.00749 1.46576 4.05181 1.03119 5.14176 1.02776V1.02776ZM5.14176 -0.000240331C4.46464 -0.00692244 3.793 0.121516 3.16612 0.37756C2.53925 0.633603 1.96974 1.01211 1.49092 1.49092C1.01211 1.96974 0.633603 2.53925 0.37756 3.16612C0.121516 3.793 -0.00692244 4.46464 -0.000240331 5.14176V8.22676C0.0029256 9.31689 0.43738 10.3615 1.20822 11.1323C1.97906 11.9031 3.02363 12.3376 4.11376 12.3408H10.2838V5.14076C10.2903 4.46373 10.1618 3.79219 9.90567 3.16543C9.64956 2.53867 9.27104 1.96928 8.79224 1.49057C8.31343 1.01186 7.74397 0.633449 7.11716 0.377468C6.49035 0.121487 5.81879 -0.0069203 5.14176 -0.000240331V-0.000240331Z" fill="white"/>
</g>
<g opacity="0.6">
<path opacity="0.6" d="M5.14166 3.08466C5.5485 3.08466 5.9462 3.2053 6.28447 3.43133C6.62274 3.65735 6.88639 3.97861 7.04208 4.35448C7.19777 4.73035 7.23851 5.14394 7.15914 5.54296C7.07977 5.94198 6.88386 6.3085 6.59618 6.59618C6.3085 6.88386 5.94198 7.07977 5.54296 7.15914C5.14394 7.23851 4.73035 7.19777 4.35448 7.04208C3.97861 6.88639 3.65735 6.62274 3.43133 6.28447C3.2053 5.9462 3.08466 5.5485 3.08466 5.14166C3.08624 4.5966 3.30347 4.07431 3.68889 3.68889C4.07431 3.30347 4.5966 3.08624 5.14166 3.08466ZM5.14166 2.05666C4.73448 2.0492 4.32997 2.1239 3.95231 2.27629C3.57465 2.42869 3.23159 2.65565 2.94362 2.94362C2.65565 3.23159 2.42869 3.57465 2.27629 3.95231C2.1239 4.32997 2.0492 4.73448 2.05666 5.14166C2.0492 5.54884 2.1239 5.95335 2.27629 6.33101C2.42869 6.70867 2.65565 7.05173 2.94362 7.3397C3.23159 7.62767 3.57465 7.85463 3.95231 8.00703C4.32997 8.15942 4.73448 8.23412 5.14166 8.22666C5.54884 8.23412 5.95335 8.15942 6.33101 8.00703C6.70867 7.85463 7.05173 7.62767 7.3397 7.3397C7.62767 7.05173 7.85463 6.70867 8.00703 6.33101C8.15942 5.95335 8.23412 5.54884 8.22666 5.14166C8.23412 4.73448 8.15942 4.32997 8.00703 3.95231C7.85463 3.57465 7.62767 3.23159 7.3397 2.94362C7.05173 2.65565 6.70867 2.42869 6.33101 2.27629C5.95335 2.1239 5.54884 2.0492 5.14166 2.05666V2.05666Z" fill="white"/>
</g>
<g opacity="0.6">
<path opacity="0.6" d="M15.4249 7.50652V10.0785H10.2829V7.50652H15.4249ZM16.4549 6.47852H9.25488V11.1065H16.4549V6.47852Z" fill="white"/>
</g>
<g opacity="0.6">
<path opacity="0.6" d="M16.4538 9.76953H15.4258V11.8265H16.4538V9.76953Z" fill="white"/>
</g>
<g opacity="0.6">
<path opacity="0.6" d="M14.3967 6.68359H13.3687V8.74059H14.3967V6.68359Z" fill="white"/>
</g>
<g opacity="0.6">
<path opacity="0.6" d="M12.3395 6.68359H11.3115V8.74059H12.3395V6.68359Z" fill="white"/>
</g>
</g>
</g>
<defs>
<clipPath id="clip0_643:16">
<rect width="16.454" height="12.341" fill="white"/>
</clipPath>
</defs>
</svg>
