<svg width="26" height="30" viewBox="0 0 26 30" fill="none" xmlns="http://www.w3.org/2000/svg">
<g clip-path="url(#clip0_643:39)">
<path d="M24.141 7.03111H20.57C20.3402 5.09377 19.4076 3.30805 17.9491 2.01234C16.4906 0.716638 14.6074 0.000976562 12.6565 0.000976562C10.7056 0.000976562 8.82242 0.716638 7.36391 2.01234C5.90539 3.30805 4.97285 5.09377 4.743 7.03111H1.172C0.861686 7.0311 0.564036 7.15417 0.34433 7.37331C0.124623 7.59246 0.000794321 7.88979 0 8.20011V28.8281C0 29.1389 0.123477 29.437 0.343269 29.6568C0.563062 29.8766 0.861167 30.0001 1.172 30.0001H24.141C24.4518 30.0001 24.7499 29.8766 24.9697 29.6568C25.1895 29.437 25.313 29.1389 25.313 28.8281V8.20011C25.3122 7.88979 25.1884 7.59246 24.9687 7.37331C24.749 7.15417 24.4513 7.0311 24.141 7.03111V7.03111ZM12.656 2.34411C13.9843 2.34643 15.2691 2.81802 16.2836 3.67562C17.298 4.53322 17.9767 5.72166 18.2 7.03111H7.11C7.33333 5.72132 8.01239 4.53262 9.02721 3.67498C10.042 2.81734 11.3273 2.34596 12.656 2.34411V2.34411ZM22.969 27.6561H2.344V9.37511H4.688V12.8911C4.688 13.2019 4.81148 13.5 5.03127 13.7198C5.25106 13.9396 5.54917 14.0631 5.86 14.0631C6.17083 14.0631 6.46894 13.9396 6.68873 13.7198C6.90852 13.5 7.032 13.2019 7.032 12.8911V9.37511H18.282V12.8911C18.282 13.2019 18.4055 13.5 18.6253 13.7198C18.8451 13.9396 19.1432 14.0631 19.454 14.0631C19.7648 14.0631 20.0629 13.9396 20.2827 13.7198C20.5025 13.5 20.626 13.2019 20.626 12.8911V9.37511H22.97L22.969 27.6561Z" fill="white"/>
</g>
<defs>
<clipPath id="clip0_643:39">
<rect width="25.313" height="30" fill="white"/>
</clipPath>
</defs>
</svg>
