<svg width="17" height="16" viewBox="0 0 17 16" fill="none" xmlns="http://www.w3.org/2000/svg">
<g clip-path="url(#clip0_643:12)">
<g opacity="0.6">
<path opacity="0.6" d="M16.2371 5.13802e-10H12.1371C11.9964 -6.17008e-06 11.8613 0.0555679 11.7613 0.154634C11.6613 0.253699 11.6044 0.388243 11.6031 0.529C11.5942 0.838768 11.4648 1.13284 11.2425 1.34877C11.0202 1.5647 10.7225 1.68549 10.4126 1.68549C10.1027 1.68549 9.80504 1.5647 9.58276 1.34877C9.36048 1.13284 9.23111 0.838768 9.22213 0.529C9.22081 0.388243 9.16397 0.253699 9.06397 0.154634C8.96397 0.0555679 8.82889 -6.17008e-06 8.68813 5.13802e-10H4.52913C4.38751 5.13802e-10 4.25168 0.056261 4.15154 0.156405C4.05139 0.25655 3.99513 0.392375 3.99513 0.534V3.79C3.99447 3.89771 4.0264 4.0031 4.08672 4.09233C4.14704 4.18156 4.23294 4.25047 4.33313 4.29L5.05413 4.575C5.35562 4.69272 5.61431 4.89911 5.79606 5.16692C5.97781 5.43472 6.07407 5.75135 6.07213 6.075V11.86C6.07213 12.0016 6.12839 12.1375 6.22853 12.2376C6.32868 12.3377 6.4645 12.394 6.60613 12.394H14.1581C14.2998 12.394 14.4356 12.3377 14.5357 12.2376C14.6359 12.1375 14.6921 12.0016 14.6921 11.86V6.073C14.6902 5.74935 14.7865 5.43272 14.9682 5.16492C15.15 4.89711 15.4086 4.69072 15.7101 4.573L16.4311 4.288C16.5313 4.24847 16.6172 4.17956 16.6775 4.09033C16.7379 4.0011 16.7698 3.89571 16.7691 3.788V0.534C16.7691 0.392375 16.7129 0.25655 16.6127 0.156405C16.5126 0.056261 16.3768 5.13801e-10 16.2351 5.13802e-10H16.2371ZM15.7031 3.431L15.3201 3.582C14.8196 3.77793 14.39 4.1207 14.0878 4.56528C13.7857 5.00987 13.6251 5.53546 13.6271 6.073V11.324H7.14313V6.073C7.1452 5.53546 6.9846 5.00987 6.68244 4.56528C6.38028 4.1207 5.9507 3.77793 5.45013 3.582L5.06713 3.431V1.069H8.22613C8.34871 1.55725 8.63087 1.99056 9.02781 2.30016C9.42475 2.60976 9.91373 2.77791 10.4171 2.77791C10.9205 2.77791 11.4095 2.60976 11.8065 2.30016C12.2034 1.99056 12.4855 1.55725 12.6081 1.069H15.7081L15.7031 3.431Z" fill="white"/>
<path opacity="0.6" d="M15.6781 13.0898C15.6284 13.0402 15.5695 13.0008 15.5046 12.9739C15.4398 12.9471 15.3703 12.9332 15.3001 12.9332C15.2299 12.9332 15.1603 12.9471 15.0955 12.9739C15.0306 13.0008 14.9717 13.0402 14.9221 13.0898C14.8724 13.1395 14.833 13.1984 14.8062 13.2632C14.7793 13.3281 14.7655 13.3976 14.7655 13.4678C14.7655 13.538 14.7793 13.6075 14.8062 13.6724C14.833 13.7372 14.8724 13.7962 14.9221 13.8458C14.9601 13.8838 15.9481 13.8708 2.00506 13.8708C2.00506 0.896811 1.99106 1.81181 2.03006 1.84981C2.13031 1.95006 2.26628 2.00638 2.40806 2.00638C2.54984 2.00638 2.68581 1.95006 2.78606 1.84981C2.88631 1.74956 2.94263 1.61359 2.94263 1.47181C2.94263 1.33003 2.88631 1.19406 2.78606 1.09381L1.84906 0.156811C1.79946 0.107103 1.74054 0.0676659 1.67568 0.0407581C1.61082 0.0138504 1.54128 0 1.47106 0C1.40084 0 1.33131 0.0138504 1.26644 0.0407581C1.20158 0.0676659 1.14266 0.107103 1.09306 0.156811L0.157061 1.08981C0.0568092 1.19006 0.000488281 1.32603 0.000488281 1.46781C0.000488281 1.60959 0.0568092 1.74556 0.157061 1.84581C0.257313 1.94606 0.393284 2.00238 0.535061 2.00238C0.676839 2.00238 0.812809 1.94606 0.913061 1.84581C0.951061 1.80781 0.938061 0.852811 0.938061 14.4008C0.938061 14.5424 0.994322 14.6783 1.09447 14.7784C1.19461 14.8785 1.33044 14.9348 1.47206 14.9348H14.9471C14.8923 14.9819 14.8476 15.0395 14.8157 15.1043C14.7838 15.1691 14.7654 15.2396 14.7615 15.3117C14.7576 15.3838 14.7683 15.456 14.793 15.5238C14.8177 15.5916 14.8559 15.6538 14.9053 15.7065C14.9547 15.7591 15.0142 15.8013 15.0803 15.8304C15.1464 15.8594 15.2177 15.8748 15.2899 15.8756C15.3621 15.8764 15.4337 15.8625 15.5004 15.8349C15.5671 15.8073 15.6276 15.7664 15.6781 15.7148L16.6151 14.7778C16.6648 14.7282 16.7042 14.6693 16.7311 14.6044C16.758 14.5396 16.7719 14.47 16.7719 14.3998C16.7719 14.3296 16.758 14.2601 16.7311 14.1952C16.7042 14.1303 16.6648 14.0714 16.6151 14.0218L15.6781 13.0898Z" fill="white"/>
</g>
</g>
<defs>
<clipPath id="clip0_643:12">
<rect width="16.771" height="15.875" fill="white"/>
</clipPath>
</defs>
</svg>
