<svg width="34" height="42" viewBox="0 0 34 42" fill="none" xmlns="http://www.w3.org/2000/svg">
<path d="M24.8739 20.7375L20.6299 9.7825L17.0513 16.1875L13.4727 9.7825L9.2287 20.741H8.0022V22.3878H14.393V20.741H13.447L14.3674 18.0198L17.0513 22.5173L19.7352 18.0198L20.6555 20.741H19.7096V22.3878H26.126V20.741L24.8739 20.7375ZM33.9999 17.3915C34.0011 15.1073 33.5621 12.8453 32.7082 10.7347C31.8543 8.62415 30.6021 6.70647 29.0233 5.09129C27.4445 3.47611 25.5699 2.19511 23.5069 1.32151C21.4439 0.447912 19.2328 -0.00114789 17 2.20357e-06C7.61902 2.20357e-06 0 7.79275 0 17.3915C0 22.204 1.91759 26.544 4.9847 29.6818C5.17676 29.88 5.42211 30.0153 5.68954 30.0705C5.95697 30.1256 6.2344 30.0982 6.48655 29.9916C6.7387 29.8851 6.95417 29.7042 7.10557 29.472C7.25697 29.2399 7.33745 28.9669 7.33677 28.6877C7.33735 28.3063 7.19038 27.9402 6.92794 27.6693C4.271 24.9401 2.78203 21.2433 2.78828 17.3915C2.78828 9.3625 9.15172 2.8245 17 2.8245C24.8482 2.8245 31.239 9.3625 31.239 17.3915C31.2432 19.3053 30.8772 21.2011 30.162 22.9695C29.4468 24.7379 28.3967 26.3441 27.072 27.6955L15.0567 39.9858L17 42L29.0409 29.6818C30.6186 28.0687 31.8689 26.1524 32.72 24.0432C33.571 21.9339 34.006 19.6734 33.9999 17.3915Z" fill="#F31818"/>
</svg>
