<svg width="34" height="33" viewBox="0 0 34 33" fill="none" xmlns="http://www.w3.org/2000/svg">
<path d="M21.6006 22.1513L23.9806 19.8413C24.3012 19.534 24.7067 19.3237 25.1481 19.2358C25.5894 19.1479 26.0476 19.1863 26.4669 19.3463L29.3675 20.4704C29.7912 20.6373 30.1546 20.9222 30.4117 21.2893C30.6689 21.6563 30.8083 22.089 30.8125 22.5329V27.6891C30.81 27.991 30.7446 28.2894 30.6202 28.5661C30.4959 28.8429 30.3151 29.0923 30.0887 29.2995C29.8624 29.5066 29.5952 29.6672 29.3033 29.7715C29.0113 29.8757 28.7007 29.9216 28.39 29.9063C8.06436 28.6791 3.96311 11.9729 3.18749 5.5791C3.15148 5.26513 3.18438 4.94731 3.28402 4.64656C3.38365 4.3458 3.54776 4.06893 3.76556 3.83416C3.98336 3.59939 4.2499 3.41204 4.54766 3.28443C4.84541 3.15683 5.16763 3.09185 5.49311 3.09379H10.625C11.0829 3.09511 11.53 3.22937 11.9087 3.4793C12.2874 3.72924 12.5804 4.08342 12.75 4.49629L13.9081 7.3116C14.0784 7.71696 14.1218 8.16202 14.033 8.59119C13.9442 9.02037 13.7271 9.41463 13.4087 9.72473L11.0287 12.0347C11.0287 12.0347 12.3994 21.0375 21.6006 22.1513Z" fill="#F31818"/>
</svg>
