<svg width="36" height="36" viewBox="0 0 36 36" fill="none" xmlns="http://www.w3.org/2000/svg">
<path d="M18 0C8.05982 0 0 8.05982 0 18C0 27.9402 8.05982 36 18 36C27.9402 36 36 27.9402 36 18C36 8.05982 27.9402 0 18 0ZM18 32.9464C9.74732 32.9464 3.05357 26.2527 3.05357 18C3.05357 9.74732 9.74732 3.05357 18 3.05357C26.2527 3.05357 32.9464 9.74732 32.9464 18C32.9464 26.2527 26.2527 32.9464 18 32.9464Z" fill="#F31818"/>
<path d="M21.8733 23.9251L16.4416 19.9215V10.3107C16.4416 10.1398 16.3045 10 16.1369 10H14.3047C14.1371 10 14 10.1398 14 10.3107V21.0049C14 21.1059 14.0457 21.1991 14.1257 21.2574L20.4259 25.9405C20.563 26.0414 20.7534 26.0104 20.8525 25.8745L21.9419 24.36C22.0409 24.2163 22.0104 24.0222 21.8733 23.9251Z" fill="#F31818"/>
</svg>
