<svg width="24" height="32" viewBox="0 0 24 32" fill="none" xmlns="http://www.w3.org/2000/svg">
<path d="M12 0C8.81856 0.00393197 5.76849 1.32968 3.51887 3.68643C1.26925 6.04318 0.003766 9.23849 1.27668e-05 12.5714C-0.00379766 15.2951 0.845445 17.9449 2.41746 20.1143C2.41746 20.1143 2.74474 20.5657 2.79819 20.6309L12 32L21.2062 20.6251C21.2542 20.5646 21.5825 20.1143 21.5825 20.1143L21.5836 20.1109C23.1549 17.9424 24.0037 15.2939 24 12.5714C23.9962 9.23849 22.7307 6.04318 20.4811 3.68643C18.2315 1.32968 15.1814 0.00393197 12 0ZM12 17.1429C11.137 17.1429 10.2933 16.8747 9.5757 16.3724C8.8581 15.8701 8.2988 15.1562 7.96853 14.3208C7.63826 13.4855 7.55184 12.5664 7.72021 11.6796C7.88859 10.7928 8.30418 9.97827 8.91445 9.33894C9.52471 8.69961 10.3022 8.26423 11.1487 8.08784C11.9952 7.91145 12.8725 8.00198 13.6699 8.34798C14.4672 8.69398 15.1487 9.27991 15.6282 10.0317C16.1077 10.7834 16.3636 11.6673 16.3636 12.5714C16.3622 13.7834 15.902 14.9453 15.084 15.8022C14.2659 16.6592 13.1569 17.1413 12 17.1429Z" fill="#F31818"/>
</svg>
