<svg width="40" height="40" viewBox="0 0 40 40" fill="none" xmlns="http://www.w3.org/2000/svg">
<path d="M27.128 30.2041H26.9999C12.1985 29.3526 10.0969 16.859 9.8031 13.0462C9.77943 12.7497 9.81447 12.4515 9.90621 12.1686C9.99794 11.8857 10.1446 11.6237 10.3377 11.3976C10.5308 11.1715 10.7667 10.9858 11.0317 10.851C11.2967 10.7162 11.5857 10.6351 11.8821 10.6122H16.0325C16.3342 10.612 16.6291 10.7023 16.8789 10.8716C17.1287 11.0409 17.3219 11.2813 17.4336 11.5617L18.5785 14.3799C18.6888 14.6538 18.7161 14.9542 18.6572 15.2435C18.5983 15.5329 18.4557 15.7986 18.2471 16.0075L16.6427 17.6276C16.8933 19.0524 17.5753 20.3657 18.5965 21.39C19.6177 22.4143 20.9288 23.1 22.3523 23.3545L23.9869 21.7344C24.1989 21.528 24.467 21.3887 24.7577 21.3338C25.0484 21.2788 25.3488 21.3107 25.6215 21.4254L28.4612 22.5633C28.7373 22.6785 28.9729 22.8733 29.1379 23.1229C29.3029 23.3725 29.3898 23.6656 29.3877 23.9648V27.9435C29.3877 28.543 29.1496 29.118 28.7259 29.542C28.3021 29.9659 27.7273 30.2041 27.128 30.2041ZM12.0629 12.1193C11.8631 12.1193 11.6715 12.1987 11.5302 12.34C11.389 12.4813 11.3096 12.673 11.3096 12.8728V12.9331C11.6561 17.394 13.8782 27.9435 27.0828 28.697C27.1817 28.7031 27.2809 28.6896 27.3747 28.6573C27.4684 28.625 27.5548 28.5745 27.629 28.5087C27.7032 28.4429 27.7637 28.3631 27.8069 28.2739C27.8502 28.1846 27.8755 28.0877 27.8812 27.9887V23.9648L25.0414 22.827L22.8796 24.9746L22.518 24.9294C15.9647 24.108 15.0759 17.5523 15.0759 17.4845L15.0307 17.1228L17.1699 14.9601L16.0401 12.1193H12.0629Z" fill="#F31818"/>
<circle cx="20" cy="20" r="19.5" stroke="#F31818"/>
</svg>
